<?xml version="1.0" encoding="UTF-8" standalone="no"?>
<!-- Created with Inkscape (http://www.inkscape.org/) -->

<svg
   version="1.1"
   id="svg1"
   width="500"
   height="500"
   viewBox="0 0 500 500"
   xmlns="http://www.w3.org/2000/svg"
   xmlns:svg="http://www.w3.org/2000/svg">
  <defs
     id="defs1" />
  <g
     id="g1">
    <path
       style="fill:#fff;stroke:none"
       d="M 0,483 C 49.091518,515.37549 135.70631,505.07846 157.94598,445 169.61916,413.46597 166,378 166,345 c 0,-53.70569 1,-107.35153 1,-161 0,-25.05884 -1,-49.96234 -1,-75 0,-12.897125 -0.6794,-24.955017 13,-31.09491 C 185.71303,74.891998 193.82176,76 201,76 h 40 112 c 16.14471,0 37.47058,-3.674164 53,0.789368 19.8931,5.717773 18,25.849762 18,42.210632 0,10.02414 0.62424,19.28369 -7.09335,26.89581 C 404.57712,158.05682 382.77762,154 367,154 H 240 v 75 c 55.85419,0 112.26999,3.73065 168,-0.0895 C 449.53506,226.06335 484.24844,196.5047 495.96375,157 500.41711,141.983 500,126.47559 500,111 500,85.088165 495.81052,59.897369 479.1929,39 447.53323,-0.81338501 404.35281,0 358,0 H 210 C 176.25911,0 139.56699,-1.8366699 114.16975,25.039368 83.218063,57.793304 88,105.52121 88,147 v 175 c 0,28.55121 4.231262,60.94006 -1.09491,89 C 83.101166,431.04022 64.923317,436.69644 47,431.84106 41.487358,430.34769 34.047665,424.2095 28.212963,426.74615 23.466578,428.80963 21.803137,436.73923 19.741512,441 13.019915,454.8916 5.9321632,468.7515 0,483 M 311,303 v 121 h -58 c -12.62917,0 -25.48433,-0.85953 -37,5.32407 -26.30878,14.12707 -24.01761,54.91665 3,66.79937 C 236.8047,503.95422 260.96625,500 280,500 h 126 c 21.77533,0 54.21869,5.93756 74,-4.49304 25.97351,-13.69577 27.27917,-52.39054 1,-66.60571 C 470.33401,423.13168 457.71722,424 446,424 H 387 V 303 Z"
       id="path1" />
  </g>
</svg>
